<mxfile host="Electron" modified="2023-04-14T05:31:38.968Z" agent="Mozilla/5.0 (Windows NT 10.0; Win64; x64) AppleWebKit/537.36 (KHTML, like Gecko) draw.io/21.1.2 Chrome/106.0.5249.199 Electron/21.4.3 Safari/537.36" etag="4ApVYrOtWp0KaN5kdOKd" version="21.1.2" type="device">
  <diagram name="Page-1" id="Pw6irgaQpK4zJYN9OR-H">
    <mxGraphModel dx="1242" dy="1864" grid="1" gridSize="10" guides="1" tooltips="1" connect="1" arrows="1" fold="1" page="1" pageScale="1" pageWidth="850" pageHeight="1100" math="0" shadow="0">
      <root>
        <mxCell id="0" />
        <mxCell id="1" parent="0" />
        <mxCell id="sXtjgj62y4knajqJ3bR--1" value="Word" style="rounded=0;whiteSpace=wrap;html=1;" parent="1" vertex="1">
          <mxGeometry x="40" y="40" width="120" height="60" as="geometry" />
        </mxCell>
        <mxCell id="sXtjgj62y4knajqJ3bR--2" value="Hit object" style="rounded=0;whiteSpace=wrap;html=1;" parent="1" vertex="1">
          <mxGeometry x="280" y="40" width="190" height="60" as="geometry" />
        </mxCell>
        <mxCell id="sXtjgj62y4knajqJ3bR--3" value="rus sentence" style="rounded=0;whiteSpace=wrap;html=1;" parent="1" vertex="1">
          <mxGeometry x="600" y="30" width="190" height="60" as="geometry" />
        </mxCell>
        <mxCell id="sXtjgj62y4knajqJ3bR--6" value="eng / tur sentence" style="rounded=0;whiteSpace=wrap;html=1;" parent="1" vertex="1">
          <mxGeometry x="600" y="160" width="190" height="60" as="geometry" />
        </mxCell>
        <mxCell id="sXtjgj62y4knajqJ3bR--8" value="" style="edgeStyle=entityRelationEdgeStyle;fontSize=12;html=1;endArrow=ERmany;rounded=0;exitX=1;exitY=0.5;exitDx=0;exitDy=0;entryX=0;entryY=0.5;entryDx=0;entryDy=0;" parent="1" source="sXtjgj62y4knajqJ3bR--1" target="sXtjgj62y4knajqJ3bR--2" edge="1">
          <mxGeometry width="100" height="100" relative="1" as="geometry">
            <mxPoint x="370" y="140" as="sourcePoint" />
            <mxPoint x="470" y="40" as="targetPoint" />
          </mxGeometry>
        </mxCell>
        <mxCell id="ZnRcikjAdtym40d8BNUQ-1" value="Создается куча слов / словосочетаний и т.д.&lt;br&gt;Можно группировать слова.&lt;br&gt;Запускается тест на повторение предложений" style="text;html=1;strokeColor=none;fillColor=none;align=center;verticalAlign=middle;whiteSpace=wrap;rounded=0;" vertex="1" parent="1">
          <mxGeometry x="160" y="-150" width="310" height="100" as="geometry" />
        </mxCell>
        <mxCell id="ZnRcikjAdtym40d8BNUQ-2" value="" style="edgeStyle=entityRelationEdgeStyle;fontSize=12;html=1;endArrow=ERmandOne;startArrow=ERmandOne;rounded=0;exitX=1;exitY=0.5;exitDx=0;exitDy=0;entryX=0;entryY=0.5;entryDx=0;entryDy=0;" edge="1" parent="1" source="sXtjgj62y4knajqJ3bR--2" target="sXtjgj62y4knajqJ3bR--3">
          <mxGeometry width="100" height="100" relative="1" as="geometry">
            <mxPoint x="370" y="20" as="sourcePoint" />
            <mxPoint x="470" y="-80" as="targetPoint" />
          </mxGeometry>
        </mxCell>
        <mxCell id="ZnRcikjAdtym40d8BNUQ-3" value="" style="edgeStyle=entityRelationEdgeStyle;fontSize=12;html=1;endArrow=ERmandOne;startArrow=ERmandOne;rounded=0;exitX=1;exitY=0.75;exitDx=0;exitDy=0;entryX=0;entryY=0.5;entryDx=0;entryDy=0;" edge="1" parent="1" source="sXtjgj62y4knajqJ3bR--2" target="sXtjgj62y4knajqJ3bR--6">
          <mxGeometry width="100" height="100" relative="1" as="geometry">
            <mxPoint x="370" y="20" as="sourcePoint" />
            <mxPoint x="470" y="-80" as="targetPoint" />
          </mxGeometry>
        </mxCell>
        <mxCell id="ZnRcikjAdtym40d8BNUQ-4" value="Hit содержит только одну пару предложений" style="text;html=1;strokeColor=#b85450;fillColor=#f8cecc;align=center;verticalAlign=middle;whiteSpace=wrap;rounded=0;" vertex="1" parent="1">
          <mxGeometry x="530" y="-170" width="310" height="100" as="geometry" />
        </mxCell>
      </root>
    </mxGraphModel>
  </diagram>
</mxfile>
